<svg height="512" viewBox="0 0 50 58" width="512" xmlns="http://www.w3.org/2000/svg"><g id="Page-1" fill="none" fill-rule="evenodd"><g id="013---AR-Clothing" fill-rule="nonzero"><rect id="Rectangle-path" fill="#b0d3f0" height="58" rx="3" width="34" x="8"/><path id="Shape" d="m42 16.2v38.8c0 1.6568542-1.3431458 3-3 3h-28c-1.65685425 0-3-1.3431458-3-3v-21.28c6.18-8.8 16.71-17.63 34-17.52z" fill="#90bae1"/><path id="Shape" d="m35 0-2.861 3.052c-.5672653.60498515-1.3596648.94815313-2.189.948h-9.9c-.8293352.00015313-1.6217347-.34301485-2.189-.948l-2.861-3.052z" fill="#3b97d3"/><path id="Shape" d="m29.23 15.59c-1.3914425.2864727-2.8094419.4239147-4.23.41-1.4205581.0139147-2.8385575-.1235273-4.23-.41l-3.81 1.83c-.6329598.3831108-1.1726836.9023387-1.58 1.52l-3.38 5.06 3 4 3-2v15c0 .5522847.4477153 1 1 1h12c.5522847 0 1-.4477153 1-1v-15l3 2 3-4-3.38-5.06c-.4073164-.6176613-.9470402-1.1368892-1.58-1.52z" fill="#955ba5"/><circle id="Oval" cx="25" cy="29" fill="#f0c419" r="3"/><g fill="#35495e"><path id="Shape" d="m1 21c-.55228475 0-1-.4477153-1-1v-9c0-1.65685425 1.34314575-3 3-3h9c.5522847 0 1 .44771525 1 1s-.4477153 1-1 1h-9c-.55228475 0-1 .4477153-1 1v9c0 .5522847-.44771525 1-1 1z"/><path id="Shape" d="m49 21c-.5522847 0-1-.4477153-1-1v-9c0-.5522847-.4477153-1-1-1h-9c-.5522847 0-1-.44771525-1-1s.4477153-1 1-1h9c1.6568542 0 3 1.34314575 3 3v9c0 .5522847-.4477153 1-1 1z"/><path id="Shape" d="m12 48h-9c-1.65685425 0-3-1.3431458-3-3v-9c0-.5522847.44771525-1 1-1s1 .4477153 1 1v9c0 .5522847.44771525 1 1 1h9c.5522847 0 1 .4477153 1 1s-.4477153 1-1 1z"/><path id="Shape" d="m47 48h-9c-.5522847 0-1-.4477153-1-1s.4477153-1 1-1h9c.5522847 0 1-.4477153 1-1v-9c0-.5522847.4477153-1 1-1s1 .4477153 1 1v9c0 1.6568542-1.3431458 3-3 3z"/></g><path id="Shape" d="m42 50v5c0 1.6568542-1.3431458 3-3 3h-28c-1.65685425 0-3-1.3431458-3-3v-5c0 1.6568542 1.34314575 3 3 3h28c1.6568542 0 3-1.3431458 3-3z" fill="#3b97d3"/></g></g></svg>