<svg height="512" viewBox="0 0 60 58" width="512" xmlns="http://www.w3.org/2000/svg"><g id="Page-1" fill="none" fill-rule="evenodd"><g id="020---AR-Viewing" fill-rule="nonzero"><rect id="Rectangle-path" fill="#b0d3f0" height="58" rx="3" width="34" x="13"/><path id="Shape" d="m47 20.1v34.9c0 1.6568542-1.3431458 3-3 3h-28c-1.6568542 0-3-1.3431458-3-3v-14.05c7.8123195-11.511112 20.1979038-19.1063894 34-20.85z" fill="#90bae1"/><path id="Shape" d="m37 11h-14l2.74 7.87c1.0678725-1.2304241 2.6314713-1.9167926 4.26-1.87 1.6285287-.0467926 3.1921275.6395759 4.26 1.87z" fill="#2980ba"/><path id="Shape" d="m26.9 14.82-2.08 7.28c-.4914398 1.7181565-2.0629434 2.9018864-3.85 2.9h-12.51c-1.98925801.0004082-3.67653077-1.4610427-3.96-3.43l-.86-6c-.16259704-1.1481143.18001568-2.3103799.93938093-3.1867181.75936525-.8763381 1.86105092-1.3808512 3.02061907-1.3832819h16.41c.9401441.0019774 1.8252934.4434064 2.3925165 1.1931616.5672232.7497551.751275 1.7215955.4974835 2.6268384z" fill="#35495e"/><path id="Shape" d="m56.36 15.57-.86 6c-.2834692 1.9689573-1.970742 3.4304082-3.96 3.43h-12.51c-1.7870566.0018864-3.3585602-1.1818435-3.85-2.9l-2.08-7.28c-.2542285-.9052765-.0703514-1.8773576.4969624-2.6272326.5673139-.7498751 1.4527424-1.1912013 2.3930376-1.1927674h16.41c1.1593433.0030944 2.2606098.5077973 3.0198288 1.3839667.759219.8761695 1.1020792 2.0380471.9401712 3.1860333z" fill="#35495e"/><path id="Shape" d="m56.36 15.57-.86 6c-.2834692 1.9689573-1.970742 3.4304082-3.96 3.43l-11.22.0000001c3.2509097-5.9432085 8.5600222-10.4948923 14.93-12.8000001.8768546.8878124 1.2876073 2.1348723 1.11 3.37z" fill="#2c3e50"/><path id="Shape" d="m26.9 14.82-2.08 7.28c-.4914398 1.7181565-2.0629434 2.9018864-3.85 2.9l-8.97.0000023c3.1768056-5.8108492 8.3268747-10.294105 14.52-12.6400023.4817917.7244019.6207518 1.6239856.38 2.46z" fill="#2c3e50"/><path id="Shape" d="m40 0-2.861 3.052c-.5672653.60498515-1.3596648.94815313-2.189.948h-9.9c-.8293352.00015313-1.6217347-.34301485-2.189-.948l-2.861-3.052z" fill="#3b97d3"/><path id="Shape" d="m53.318 28.343c-.4970563-.2410723-1.0954277-.0335563-1.3365.4635s-.0335563 1.0954277.4635 1.3365c3.582 1.738 5.555 3.818 5.555 5.857 0 4.829-11.251 10-28 10s-28-5.171-28-10c0-1.845 1.455-3.748 4-5.3v3.3c0 .5522847.44771525 1 1 1s1-.4477153 1-1v-5c0-.5522847-.44771525-1-1-1h-6c-.55228475 0-1 .4477153-1 1s.44771525 1 1 1h2.5c-2.245 1.764-3.5 3.868-3.5 6 0 6.729 13.178 12 30 12s30-5.271 30-12c0-2.888-2.311-5.536-6.682-7.657z" fill="#ff5364"/><path id="Shape" d="m47 50v5c0 1.6568542-1.3431458 3-3 3h-28c-1.6568542 0-3-1.3431458-3-3v-5c0 1.6568542 1.3431458 3 3 3h28c1.6568542 0 3-1.3431458 3-3z" fill="#3b97d3"/></g></g></svg>