<svg height="512" viewBox="0 0 60 59" width="512" xmlns="http://www.w3.org/2000/svg"><g id="Page-1" fill="none" fill-rule="evenodd"><g id="008---AR-Visor" fill-rule="nonzero"><path id="Shape" d="m59 58.58v.42h-58v-.42c.00100149-1.9958565 1.4731003-3.6855699 3.45-3.96 4.81372399-.6512005 9.5375426-1.8489301 14.08-3.57h.01c1.25-.48 2.05-.86 2.34-1 .03-.1.05-.19.08-.29.3897928-1.9071287.5076287-3.8598373.35-5.8h17.38c-.1624757 1.9467527-.0446065 3.9067488.35 5.82.0186326.0911536.0419976.1812756.07.27.28.13 1.09.51 2.36 1 2.1219025.8137294 4.2888067 1.5048683 6.49 2.07 2.498594.6475396 5.032921 1.1483947 7.59 1.5 1.9768997.2744301 3.4489985 1.9641435 3.45 3.96z" fill="#f9c795"/><path id="Shape" d="m20.96 50.32c-.4705731 1.8891758-1.6623558 3.5189026-3.32 4.54-.1585122.0903593-.3375476.1385612-.52.14-.3510473.0020443-.6774583-.1801386-.86-.48-.2813734-.4758359-.1302203-1.0893394.34-1.38.8343517-.4923484 1.5055201-1.2191576 1.93-2.09h.01c1.25-.48 2.05-.86 2.34-1 .03-.1.05-.19.08-.29.0500041.1833179.0500041.3766821 0 .56z" fill="#f09372"/><path id="Shape" d="m43.75 54.52c-.1825417.2998614-.5089527.4820443-.86.48-.1824524-.0014388-.3614878-.0496407-.52-.14-1.6516558-1.0251402-2.8443957-2.6476961-3.33-4.53-.0500548-.1799168-.0500548-.3700832 0-.55.0186326.0911536.0419976.1812756.07.27.28.13 1.09.51 2.36 1 .4312776.8693866 1.1050796 1.5952867 1.94 2.09.4702203.2906606.6213734.9041641.34 1.38z" fill="#f09372"/><path id="Shape" d="m1 11c-.55228475 0-1-.4477153-1-1v-7c0-1.65685425 1.34314575-3 3-3h7c.5522847 0 1 .44771525 1 1s-.4477153 1-1 1h-7c-.55228475 0-1 .44771525-1 1v7c0 .5522847-.44771525 1-1 1z" fill="#3f5c6c"/><path id="Shape" d="m59 11c-.5522847 0-1-.4477153-1-1v-7c0-.55228475-.4477153-1-1-1h-7c-.5522847 0-1-.44771525-1-1s.4477153-1 1-1h7c1.6568542 0 3 1.34314575 3 3v7c0 .5522847-.4477153 1-1 1z" fill="#3f5c6c"/><path id="Shape" d="m10 48h-7c-1.65685425 0-3-1.3431458-3-3v-7c0-.5522847.44771525-1 1-1s1 .4477153 1 1v7c0 .5522847.44771525 1 1 1h7c.5522847 0 1 .4477153 1 1s-.4477153 1-1 1z" fill="#3f5c6c"/><path id="Shape" d="m57 48h-7c-.5522847 0-1-.4477153-1-1s.4477153-1 1-1h7c.5522847 0 1-.4477153 1-1v-7c0-.5522847.4477153-1 1-1s1 .4477153 1 1v7c0 1.6568542-1.3431458 3-3 3z" fill="#3f5c6c"/><g fill="#3b97d3"><path id="Shape" d="m6 6h-1c-.55228475 0-1-.44771525-1-1s.44771525-1 1-1h1c.55228475 0 1 .44771525 1 1s-.44771525 1-1 1z"/><path id="Shape" d="m14 6h-4c-.55228475 0-1-.44771525-1-1s.44771525-1 1-1h4c.5522847 0 1 .44771525 1 1s-.4477153 1-1 1z"/><path id="Shape" d="m11 10h-6c-.55228475 0-1-.44771525-1-1s.44771525-1 1-1h6c.5522847 0 1 .44771525 1 1s-.4477153 1-1 1z"/><path id="Shape" d="m55 6h-1c-.5522847 0-1-.44771525-1-1s.4477153-1 1-1h1c.5522847 0 1 .44771525 1 1s-.4477153 1-1 1z"/><path id="Shape" d="m50 6h-4c-.5522847 0-1-.44771525-1-1s.4477153-1 1-1h4c.5522847 0 1 .44771525 1 1s-.4477153 1-1 1z"/><path id="Shape" d="m55 10h-6c-.5522847 0-1-.44771525-1-1s.4477153-1 1-1h6c.5522847 0 1 .44771525 1 1s-.4477153 1-1 1z"/><path id="Shape" d="m6 44h-1c-.55228475 0-1-.4477153-1-1s.44771525-1 1-1h1c.55228475 0 1 .4477153 1 1s-.44771525 1-1 1z"/><path id="Shape" d="m14 44h-4c-.55228475 0-1-.4477153-1-1s.44771525-1 1-1h4c.5522847 0 1 .4477153 1 1s-.4477153 1-1 1z"/><path id="Shape" d="m11 40h-6c-.55228475 0-1-.4477153-1-1s.44771525-1 1-1h6c.5522847 0 1 .4477153 1 1s-.4477153 1-1 1z"/><path id="Shape" d="m55 44h-1c-.5522847 0-1-.4477153-1-1s.4477153-1 1-1h1c.5522847 0 1 .4477153 1 1s-.4477153 1-1 1z"/><path id="Shape" d="m50 44h-4c-.5522847 0-1-.4477153-1-1s.4477153-1 1-1h4c.5522847 0 1 .4477153 1 1s-.4477153 1-1 1z"/><path id="Shape" d="m55 40h-6c-.5522847 0-1-.4477153-1-1s.4477153-1 1-1h6c.5522847 0 1 .4477153 1 1s-.4477153 1-1 1z"/></g><path id="Shape" d="m59 58.58v.42h-15c1.9251172-1.4764503 3.3155626-3.5410511 3.96-5.88 2.498594.6475396 5.032921 1.1483947 7.59 1.5 1.9768997.2744301 3.4489985 1.9641435 3.45 3.96z" fill="#ff5364"/><path id="Shape" d="m16 59h-15v-.42c.00100149-1.9958565 1.4731003-3.6855699 3.45-3.96 2.55691603-.3525785 5.09118656-.8534225 7.59-1.5.6468516 2.3378386 2.0368193 4.40173 3.96 5.88z" fill="#ff5364"/><path id="Shape" d="m43 33c-.2896337 7.1122737-4.7455881 13.3849528-11.366 16l-.617.224c-.6578035.2340362-1.3761965.2340362-2.034 0l-.617-.224c-6.6204119-2.6150472-11.0763663-8.8877263-11.366-16l-1.15-16.34c.01-.38.03-.77.05-1.17.51-10.94 13.09-11.49 13.09-11.49h2.02s12.58.55 13.09 11.49c.02.4.04.79.05 1.17z" fill="#fdd7ad"/><path id="Shape" d="m30 26.286c1.648098-.0923867 3.2031989.7683617 4 2.214 2.1096356 2.7484817 5.6107224 4.0403828 9 3.321 4.363-.8 4.5-7.464 4.244-11.038-.0668044-1.3871349-.7810859-2.6623996-1.929-3.444-6.815-4.339-15.315-4.339-15.315-4.339s-8.5 0-15.315 4.34c-1.1479141.7816004-1.8621956 2.0568651-1.929 3.444-.256 3.574-.119 10.233 4.244 11.038 3.3894762.7191592 6.8906058-.5731467 9-3.322.7968011-1.4456383 2.351902-2.3063867 4-2.214z" fill="#3b97d3"/><path id="Shape" d="m43 31.82c-3.3891883.7211214-6.8910238-.5706669-9-3.32-.7980713-1.4439148-2.3528285-2.3029182-4-2.21v-13.29s8.5 0 15.31 4.34c1.1500582.7779266 1.8654601 2.0530471 1.93 3.44.26 3.58.12 10.24-4.24 11.04z" fill="#2980ba"/><path id="Shape" d="m17 24c-.5522847 0-1-.4477153-1-1v-1.5c.000077-.2527086.0958284-.4960173.268-.681.8632477-.9176994 1.988888-1.5463536 3.223-1.8.3535233-.081836.7236375.0342601.9670833.3033512.2434457.2690912.3220162.6489457.2052994.9925342s-.4104032.5969876-.7673827.6621146c-.7043235.1432905-1.3591634.4676085-1.9.941v1.082c.0000044.5507264-.445278.9977971-.996 1z" fill="#67b9cc"/></g></g></svg>