<svg id="Capa_1" enable-background="new 0 0 512 512" height="512" viewBox="0 0 512 512" width="512" xmlns="http://www.w3.org/2000/svg"><g><path d="m372.942 223.058c-2.551-1.832-5.612-2.818-8.753-2.818h-154.129c-3.134 0-6.189.981-8.736 2.808-2.173 1.556-53.199 38.787-53.199 96.825v177.127c0 8.284 6.716 15 15 15h248.001c8.284 0 15-6.716 15-15v-177.128c-.001-57.932-51.012-95.254-53.184-96.814z" fill="#91e6a9"/><path d="m372.942 223.058c-2.551-1.832-5.612-2.818-8.753-2.818h-77.246v291.76h124.182c8.284 0 15-6.716 15-15v-177.128c0-57.932-51.011-95.254-53.183-96.814z" fill="#26bfa6"/><path d="m303.973 367.904c-12.865-4.745-24.861-9.906-28.827-11.64-2.023-1.739-2.057-4.039-1.871-5.33.227-1.579 1.398-5.445 7.367-7.243 9.009-2.712 18.641-.473 27.859 6.478.54.407.946.7 1.198.873 6.848 4.667 16.178 2.895 20.842-3.952 4.615-6.774 2.932-15.98-3.736-20.692l-.241-.182c-7.744-5.84-16.006-9.82-24.439-11.918v-1.679c0-8.284-6.716-15-15-15s-15 6.716-15 15v2.31c-.045.014-.092.023-.137.037-15.382 4.633-26.268 16.782-28.41 31.707-2.015 14.041 4.074 27.548 15.891 35.25.662.433 1.358.811 2.08 1.133.621.277 15.399 6.855 32.041 12.994 3.359 1.239 14.223 5.82 12.985 12.749-.95 5.319-7.6 10.82-17.083 10.82-10.181 0-19.961-4.086-26.163-10.93-5.564-6.138-15.049-6.603-21.188-1.042-6.139 5.564-6.605 15.05-1.042 21.189 8.177 9.022 19 15.411 31.025 18.558v2.226c0 8.284 6.716 15 15 15s15-6.716 15-15v-1.511c17.482-4.285 30.993-17.295 33.982-34.036 2.781-15.563-4.202-35.864-32.133-46.169z" fill="#f0f7ff"/><path d="m287.125 342.604c7.059-.292 14.338 2.259 21.376 7.565.54.407.946.7 1.198.873 6.848 4.667 16.178 2.895 20.842-3.952 4.615-6.774 2.932-15.98-3.736-20.692l-.241-.182c-7.744-5.84-16.006-9.82-24.439-11.918v-1.679c0-8.284-6.716-15-15-15z" fill="#dfe7f4"/><path d="m303.973 367.904c-6.063-2.236-11.92-4.56-16.848-6.579v32.286c2.104.811 4.268 1.629 6.465 2.44 3.359 1.239 14.223 5.82 12.985 12.749-.95 5.319-7.6 10.82-17.083 10.82-.793 0-1.581-.033-2.367-.082v45.082c8.284 0 15-6.716 15-15v-1.511c17.482-4.285 30.993-17.295 33.982-34.036 2.78-15.563-4.203-35.864-32.134-46.169z" fill="#dfe7f4"/><path d="m389.136 6.015c-2.832-3.787-7.283-6.015-12.011-6.015h-180.001c-4.729 0-9.18 2.228-12.012 6.015-2.832 3.786-3.713 8.686-2.378 13.221l30 101.921c1.878 6.383 7.736 10.765 14.39 10.765h120.001c6.653 0 12.511-4.382 14.39-10.765l30-101.921c1.335-4.536.453-9.435-2.379-13.221z" fill="#91e6a9"/><path d="m389.136 6.015c-2.832-3.787-7.283-6.015-12.011-6.015h-90.182v131.921h60.182c6.653 0 12.511-4.382 14.39-10.765l30-101.921c1.335-4.535.453-9.434-2.379-13.22z" fill="#26bfa6"/><path d="m364.979 101.922c-.066-.001-.134-.001-.2-.001h-77.836c-1.587-23.383-21.117-41.921-44.895-41.921h-20.813c-12.291 0-27.521 6.309-36.212 15l-24.148 19.753c-2.813 2.813-15 11.021-15 15v125.486c0 8.284 6.716 15 15 15h203.5c24.814 0 45-20.187 45-45v-58.328c0-24.48-19.916-44.662-44.396-44.989z" fill="#ffd9c0"/><path d="m364.979 101.922c-.066-.001-.134-.001-.2-.001h-77.654v148.318h77.25c24.814 0 45-20.187 45-45v-58.328c0-24.48-19.916-44.662-44.396-44.989z" fill="#fbceaf"/><path d="m100.875 94.753c-8.284 0-15 6.716-15 15v125.486c0 8.284 6.716 15 15 15h60v-155.486z" fill="#7c83e7"/></g></svg>